<svg width="47" height="47" viewBox="0 0 47 47" fill="none" xmlns="http://www.w3.org/2000/svg">
<path fill-rule="evenodd" clip-rule="evenodd" d="M21.5417 9.49792C17.2431 7.4965 10.7317 6.43312 4.6354 11.4151C4.41081 11.5988 4.22982 11.83 4.10553 12.0921C3.98123 12.3543 3.91673 12.6408 3.91669 12.9309V37.2083C3.91674 37.579 4.02198 37.942 4.22016 38.2552C4.41835 38.5684 4.70134 38.8189 5.03627 38.9777C5.37119 39.1364 5.74428 39.1968 6.11219 39.152C6.4801 39.1071 6.82772 38.9587 7.11465 38.7241C12.4726 34.3452 18.3437 36.1587 21.5417 38.2247V9.49792ZM25.4584 9.49792V38.2247C28.6563 36.1567 34.5254 34.3452 39.8854 38.7241C40.1723 38.9587 40.5199 39.1071 40.8879 39.152C41.2558 39.1968 41.6289 39.1364 41.9638 38.9777C42.2987 38.8189 42.5817 38.5684 42.7799 38.2552C42.9781 37.942 43.0833 37.579 43.0834 37.2083V12.9309C43.0833 12.6408 43.0188 12.3543 42.8945 12.0921C42.7702 11.83 42.5892 11.5988 42.3646 11.4151C36.2684 6.43312 29.7569 7.49846 25.4584 9.49792Z" fill="black"/>
</svg>
