<svg width="35" height="35" viewBox="0 0 35 35" fill="none" xmlns="http://www.w3.org/2000/svg">
<path d="M20.4167 32.0833V27.5989L28.474 19.5781C28.6927 19.3594 28.9358 19.2014 29.2031 19.1042C29.4705 19.0069 29.7379 18.9583 30.0052 18.9583C30.2969 18.9583 30.5764 19.0133 30.8438 19.1231C31.1111 19.233 31.3542 19.3968 31.5729 19.6146L32.9219 20.9635C33.1163 21.1823 33.2685 21.4253 33.3783 21.6927C33.4882 21.9601 33.5427 22.2274 33.5417 22.4948C33.5407 22.7621 33.4921 23.0358 33.3958 23.3158C33.2996 23.5958 33.1416 23.8447 32.9219 24.0625L24.9011 32.0833H20.4167ZM22.6042 29.8958H23.9896L28.4011 25.4479L27.7448 24.7552L27.0521 24.0989L22.6042 28.5104V29.8958ZM8.75001 32.0833C7.94793 32.0833 7.26154 31.798 6.69084 31.2273C6.12015 30.6566 5.83432 29.9697 5.83334 29.1667V5.83332C5.83334 5.03124 6.11918 4.34485 6.69084 3.77416C7.26251 3.20346 7.9489 2.91763 8.75001 2.91666H20.4167L29.1667 11.6667V16.0417H26.25V13.125H18.9583V5.83332H8.75001V29.1667H17.5V32.0833H8.75001ZM27.7448 24.7552L27.0521 24.0989L28.4011 25.4479L27.7448 24.7552Z" fill="black"/>
</svg>
