<svg width="40" height="40" viewBox="0 0 40 40" fill="none" xmlns="http://www.w3.org/2000/svg">
<path d="M6.66666 31.6667V16.6667C6.66666 16.1389 6.78499 15.6389 7.02166 15.1667C7.25832 14.6945 7.58443 14.3056 7.99999 14L18 6.50001C18.5833 6.05557 19.25 5.83334 20 5.83334C20.75 5.83334 21.4167 6.05557 22 6.50001L32 14C32.4167 14.3056 32.7433 14.6945 32.98 15.1667C33.2167 15.6389 33.3344 16.1389 33.3333 16.6667V31.6667C33.3333 32.5833 33.0067 33.3683 32.3533 34.0217C31.7 34.675 30.9155 35.0011 30 35H25C24.5278 35 24.1322 34.84 23.8133 34.52C23.4944 34.2 23.3344 33.8045 23.3333 33.3333V25C23.3333 24.5278 23.1733 24.1322 22.8533 23.8133C22.5333 23.4945 22.1378 23.3345 21.6667 23.3333H18.3333C17.8611 23.3333 17.4655 23.4933 17.1467 23.8133C16.8278 24.1333 16.6678 24.5289 16.6667 25V33.3333C16.6667 33.8056 16.5067 34.2017 16.1867 34.5217C15.8667 34.8417 15.4711 35.0011 15 35H9.99999C9.08332 35 8.29888 34.6739 7.64666 34.0217C6.99443 33.3695 6.66777 32.5845 6.66666 31.6667Z" fill="white"/>
</svg>
