<svg width="35" height="35" viewBox="0 0 35 35" fill="none" xmlns="http://www.w3.org/2000/svg">
<path d="M29.8309 5.16905L33.4972 5.90186C33.6941 5.94124 33.8559 6.08561 33.9128 6.2803C33.9415 6.37487 33.9441 6.47546 33.9202 6.57137C33.8963 6.66728 33.8469 6.75492 33.7772 6.82498L30.7737 9.83061C30.4139 10.1885 29.9272 10.3897 29.4197 10.3906H26.9281L20.6719 16.649C20.7912 17.0997 20.8132 17.5707 20.7363 18.0305C20.6593 18.4903 20.4853 18.9284 20.2258 19.3157C19.9663 19.703 19.6272 20.0306 19.2311 20.2765C18.8351 20.5225 18.3912 20.6812 17.9289 20.7422C17.4667 20.8031 16.9968 20.7649 16.5506 20.63C16.1043 20.4951 15.6919 20.2667 15.3409 19.9599C14.9898 19.6531 14.7081 19.275 14.5147 18.8509C14.3212 18.4267 14.2203 17.9662 14.2188 17.5C14.2186 16.9965 14.3344 16.4997 14.5571 16.0481C14.7798 15.5965 15.1034 15.2022 15.5029 14.8958C15.9024 14.5893 16.3671 14.3789 16.861 14.2809C17.3548 14.1828 17.8647 14.1997 18.3509 14.3303L24.6094 8.06967V5.58249C24.6094 5.07499 24.8106 4.58717 25.1694 4.22842L28.175 1.2228C28.2451 1.15308 28.3327 1.10365 28.4286 1.07977C28.5245 1.05589 28.6251 1.05845 28.7197 1.08717C28.9144 1.14405 29.0587 1.30592 29.0981 1.5028L29.8309 5.16905Z" fill="black"/>
<path d="M4.37502 17.5C4.37726 19.3768 4.78199 21.2313 5.56188 22.9383C6.34178 24.6454 7.47871 26.1654 8.89598 27.3957C10.3133 28.626 11.9779 29.5381 13.7776 30.0704C15.5774 30.6026 17.4703 30.7427 19.3288 30.4812C21.1873 30.2197 22.9681 29.5627 24.551 28.5544C26.134 27.5462 27.4823 26.2102 28.505 24.6365C29.5278 23.0629 30.2011 21.2882 30.4797 19.4322C30.7582 17.5762 30.6355 15.682 30.1197 13.8775C30.0473 13.6667 30.0185 13.4433 30.0352 13.221C30.0519 12.9987 30.1136 12.7822 30.2166 12.5845C30.3197 12.3868 30.4619 12.2122 30.6346 12.0712C30.8072 11.9303 31.0068 11.8259 31.2211 11.7645C31.4354 11.7032 31.6599 11.686 31.8811 11.7142C32.1022 11.7424 32.3153 11.8153 32.5073 11.9284C32.6994 12.0416 32.8664 12.1926 32.9982 12.3724C33.1301 12.5521 33.2239 12.7569 33.2741 12.9741C34.2727 16.4686 34.083 20.1959 32.7348 23.571C31.3865 26.9462 28.9559 29.7782 25.8244 31.6229C22.6928 33.4676 19.0375 34.2206 15.4318 33.7636C11.8262 33.3067 8.47426 31.6657 5.90189 29.0981C3.33233 26.5264 1.68959 23.1741 1.23159 19.5676C0.773587 15.9612 1.52626 12.3047 3.37144 9.17234C5.21662 6.03996 8.04981 3.60906 11.4262 2.2613C14.8026 0.91353 18.531 0.725219 22.026 1.72593C22.4421 1.84758 22.7932 2.12901 23.0025 2.50873C23.2118 2.88844 23.2622 3.33556 23.1428 3.75238C23.0235 4.16919 22.7439 4.5218 22.3654 4.73315C21.9868 4.9445 21.54 4.9974 21.1225 4.8803C19.1681 4.3191 17.1101 4.21965 15.1107 4.5898C13.1113 4.95996 11.2253 5.78959 9.60138 7.01327C7.97745 8.23694 6.66003 9.82119 5.75305 11.6411C4.84607 13.4609 4.37432 15.4666 4.37502 17.5Z" fill="black"/>
<path d="M10.9375 17.5C10.9376 18.6957 11.2642 19.8686 11.882 20.8923C12.4998 21.916 13.3853 22.7516 14.4431 23.309C15.5009 23.8664 16.6908 24.1244 17.8845 24.0552C19.0782 23.986 20.2303 23.5922 21.2166 22.9163C22.2027 22.2387 22.9848 21.3044 23.4783 20.2144C23.9718 19.1244 24.1579 17.9203 24.0166 16.7322C23.9783 16.4439 24.0176 16.1506 24.1304 15.8825C24.2432 15.6145 24.4254 15.3813 24.6583 15.207C24.8911 15.0328 25.1662 14.9238 25.4552 14.8912C25.7442 14.8586 26.0367 14.9036 26.3025 15.0216C26.5683 15.138 26.7984 15.3229 26.9694 15.5573C27.1404 15.7917 27.2462 16.0673 27.2759 16.356C27.5136 18.3862 27.1134 20.44 26.1308 22.2325C25.1482 24.0249 23.632 25.467 21.7926 26.3586C19.9532 27.2502 17.8819 27.547 15.8662 27.208C13.8504 26.8689 11.9902 25.9107 10.5437 24.4665C9.09719 23.0222 8.1362 21.1634 7.79408 19.1482C7.45196 17.1329 7.74568 15.0611 8.63448 13.2204C9.52327 11.3796 10.9631 9.86125 12.754 8.87594C14.5449 7.89063 16.5982 7.48728 18.6288 7.72189C18.8462 7.74206 19.0574 7.80544 19.25 7.9083C19.4426 8.01116 19.6128 8.15143 19.7505 8.3209C19.8882 8.49037 19.9907 8.68563 20.0519 8.89522C20.1132 9.10481 20.132 9.32452 20.1072 9.54148C20.0825 9.75843 20.0147 9.96826 19.9078 10.1587C19.8009 10.3491 19.657 10.5162 19.4847 10.6503C19.3124 10.7844 19.115 10.8828 18.9042 10.9396C18.6933 10.9964 18.4733 11.0106 18.2569 10.9813C17.3374 10.8745 16.4057 10.9635 15.523 11.2423C14.6404 11.5212 13.8267 11.9836 13.1354 12.5993C12.4441 13.215 11.8909 13.9699 11.5121 14.8145C11.1333 15.6591 10.9375 16.5743 10.9375 17.5Z" fill="black"/>
</svg>
