<svg width="35" height="36" viewBox="0 0 35 36" fill="none" xmlns="http://www.w3.org/2000/svg">
<path d="M13.2933 0.0105636C13.0979 0.0396175 12.9113 0.111313 12.7467 0.220564C12.7467 0.220564 11.0439 1.2921 9.21308 2.45114C7.38231 3.60883 5.34558 4.88499 4.87981 5.14345L4.795 5.18383C3.10423 6.2271 2.75289 7.93133 2.69231 8.8871C2.68827 8.93153 2.69231 8.96787 2.69231 9.01499C2.6775 9.37306 2.69231 9.60326 2.69231 9.60326V27.1881C2.69231 29.7431 5.67135 30.9721 8.49827 30.9721C9.44058 30.9721 10.3829 30.82 11.1906 30.5508C11.729 30.2815 12.1154 29.7431 12.1154 29.2046V15.07C12.1154 11.9738 12.7885 10.52 14.8077 9.30845C15.3462 9.03922 20.9919 5.1421 20.9919 5.1421C21.2612 4.87287 21.5385 4.32633 21.5385 3.92249V3.79595C21.5385 3.25749 21.2692 2.84556 20.8654 2.57633C20.4615 2.3071 19.9231 2.3071 19.5192 2.57633C19.3846 2.71095 11.1731 8.2396 9.42308 9.18191C7.67308 10.2588 6.0402 10.5186 5.63635 9.98018C5.51116 9.85499 5.40212 9.47133 5.38462 9.0971V9.01229C5.38597 8.64614 5.4802 7.95691 6.22597 7.49787C6.9825 7.07653 8.86039 5.8771 10.6858 4.7221C11.4571 4.23345 11.5527 4.18095 12.1571 3.79595C12.2367 4.12481 12.4372 4.41164 12.7187 4.59936C13.0002 4.78707 13.342 4.8619 13.6762 4.80895C14.0104 4.756 14.3124 4.57915 14.522 4.3136C14.7317 4.04806 14.8337 3.71329 14.8077 3.37595V1.35672C14.8092 1.16484 14.7697 0.974864 14.6918 0.799516C14.6138 0.624169 14.4993 0.467504 14.3559 0.340026C14.2125 0.212548 14.0435 0.117202 13.8602 0.0603796C13.677 0.00355755 13.4837 -0.0134274 13.2933 0.0105636ZM24.0625 4.7221C23.8484 4.7577 23.6462 4.84453 23.4729 4.97518C23.4729 4.97518 16.6964 9.5346 15.5225 10.3167L15.4808 10.3598C14.5062 11.0908 13.9287 11.9604 13.6715 12.7559C13.5283 13.205 13.4574 13.6739 13.4615 14.1452V14.5665C13.4596 14.6082 13.4596 14.65 13.4615 14.6917V30.9721C13.4615 33.5298 16.4069 35.0106 19.0992 35.0106C20.3108 35.0106 21.4039 34.7494 22.2115 34.211C23.8269 33.2686 31.6346 27.1867 31.6346 27.1867C32.0385 26.9175 32.3077 26.5379 32.3077 26.134V8.63403C32.3077 7.96095 32.0465 7.5571 31.5081 7.28787C31.1042 7.01864 30.4406 7.14518 30.0367 7.41441C27.8829 9.0298 22.085 13.5906 20.7389 14.3983C18.8542 15.4752 17.0787 15.7444 16.4056 15.0713C16.1364 14.8021 16.1539 14.549 16.1539 14.1452C16.161 13.9118 16.1893 13.7153 16.2387 13.5556C16.314 13.3213 16.4675 13.0333 17.0369 12.589C17.0639 12.5675 17.0504 12.5688 17.0787 12.5473C18.0519 11.8971 21.0283 9.86845 22.9694 8.54922C23.0794 8.84425 23.2893 9.0914 23.5627 9.24768C23.836 9.40396 24.1555 9.45947 24.4655 9.40457C24.7756 9.34967 25.0566 9.18782 25.2596 8.94719C25.4627 8.70655 25.575 8.40235 25.5769 8.08749V6.06826C25.5784 5.87638 25.5389 5.6864 25.461 5.51106C25.3831 5.33571 25.2686 5.17904 25.1252 5.05157C24.9817 4.92409 24.8127 4.82874 24.6295 4.77192C24.4462 4.7151 24.2529 4.69811 24.0625 4.7221ZM29.6154 14.5665V17.2588L22.8846 22.4738V19.7815L29.6154 14.5665Z" fill="white"/>
</svg>
